<?xml version="1.0" encoding="utf-8"?>
<!-- Generator: Adobe Illustrator 16.0.0, SVG Export Plug-In . SVG Version: 6.00 Build 0)  -->
<!DOCTYPE svg PUBLIC "-//W3C//DTD SVG 1.1//EN" "http://www.w3.org/Graphics/SVG/1.1/DTD/svg11.dtd">
<svg version="1.1" id="Layer_1" xmlns:sketch="http://www.bohemiancoding.com/sketch/ns"
	 xmlns="http://www.w3.org/2000/svg" xmlns:xlink="http://www.w3.org/1999/xlink" x="0px" y="0px" width="1020px" height="804px"
	 viewBox="0 0 1020 804" enable-background="new 0 0 1020 804" xml:space="preserve">
<title>Business Model Canvas 2</title>
<desc>Created with Sketch.</desc>
<rect id="Rectangle-1" x="10" y="82" sketch:type="MSShapeGroup" fill="#FFFFFF" stroke="#4A4A4A" stroke-width="3" width="1000" height="700">
</rect>
<path id="Line" sketch:type="MSShapeGroup" fill="none" stroke="#4A4A4A" stroke-width="3" stroke-linecap="square" d="M12.5,584.5
	h994.002"/>
<path id="Line_1_" sketch:type="MSShapeGroup" fill="none" stroke="#4A4A4A" stroke-width="3" stroke-linecap="square" d="
	M210.496,353.25h200"/>
<path id="Line_2_" sketch:type="MSShapeGroup" fill="none" stroke="#4A4A4A" stroke-width="3" stroke-linecap="square" d="
	M610.495,351.25h200.001"/>
<path id="Line_3_" sketch:type="MSShapeGroup" fill="none" stroke="#4A4A4A" stroke-width="3" stroke-linecap="square" d="
	M210.5,84.5v500"/>
<path id="Line_4_" sketch:type="MSShapeGroup" fill="none" stroke="#4A4A4A" stroke-width="3" stroke-linecap="square" d="
	M410.5,84.5v500"/>
<rect x="10" y="82" fill="#FC7AA9" width="200.5" height="502.5"/>
<path id="Line_5_" sketch:type="MSShapeGroup" fill="none" stroke="#4A4A4A" stroke-width="3" stroke-linecap="square" d="
	M509.5,584.5l-0.979,195.979"/>
<path id="Line_6_" sketch:type="MSShapeGroup" fill="none" stroke="#4A4A4A" stroke-width="3" stroke-linecap="square" d="
	M610.167,84.5l0.333,500"/>
<path id="Line_7_" sketch:type="MSShapeGroup" fill="none" stroke="#4A4A4A" stroke-width="3" stroke-linecap="square" d="
	M810.5,85.5l0.998,498.998"/>
<rect x="212.5" y="80.5" fill="#FFFF00" width="198" height="270.75"/>
<rect x="10" y="585.833" fill="#FF795A" width="498.521" height="194.646"/>
<text transform="matrix(1 0 0 1 30 118)" fill="#4A4A4A" font-family="'Georgia'" font-size="16">Key</text>
<text transform="matrix(1 0 0 1 56.7188 118)" fill="#4A4A4A" font-family="'Georgia'" font-size="16"> </text>
<text transform="matrix(1 0 0 1 30 137)" fill="#4A4A4A" font-family="'Georgia'" font-size="16">Partners</text>
<rect x="510" y="585.833" fill="#22FFDA" width="500" height="194.646"/>
<text transform="matrix(1 0 0 1 230 118)" fill="#4A4A4A" font-family="'Georgia'" font-size="16">Key</text>
<text transform="matrix(1 0 0 1 256.7188 118)" fill="#4A4A4A" font-family="'Georgia'" font-size="16"> </text>
<text transform="matrix(1 0 0 1 230 137)" fill="#4A4A4A" font-family="'Georgia'" font-size="16">Activities</text>
<text transform="matrix(1 0 0 1 30 618)" fill="#4A4A4A" font-family="'Georgia'" font-size="16">Cost</text>
<text transform="matrix(1 0 0 1 61.3359 618)" fill="#4A4A4A" font-family="'Georgia'" font-size="16"> </text>
<text transform="matrix(1 0 0 1 30 637)" fill="#4A4A4A" font-family="'Georgia'" font-size="16">Structure</text>
<text transform="matrix(1 0 0 1 529 618)" fill="#4A4A4A" font-family="'Georgia'" font-size="16">Revenue</text>
<text transform="matrix(1 0 0 1 590.0313 618)" fill="#4A4A4A" font-family="'Georgia'" font-size="16"> </text>
<text transform="matrix(1 0 0 1 529 637)" fill="#4A4A4A" font-family="'Georgia'" font-size="16">Streams</text>
<rect x="412.25" y="80.5" fill="#51FC51" width="197.917" height="504"/>
<rect x="211.813" y="354.667" fill="#55D3FF" width="196.688" height="229.833"/>
<text transform="matrix(1 0 0 1 229 389)" fill="#4A4A4A" font-family="'Georgia'" font-size="16">Key</text>
<text transform="matrix(1 0 0 1 255.7188 389)" fill="#4A4A4A" font-family="'Georgia'" font-size="16"> </text>
<text transform="matrix(1 0 0 1 229 408)" fill="#4A4A4A" font-family="'Georgia'" font-size="16">Resources</text>
<text transform="matrix(1 0 0 1 430 111)" fill="#4A4A4A" font-family="'Georgia'" font-size="16">Value</text>
<text transform="matrix(1 0 0 1 470.2422 111)" fill="#4A4A4A" font-family="'Georgia'" font-size="16"> </text>
<text transform="matrix(1 0 0 1 430 130)" fill="#4A4A4A" font-family="'Georgia'" font-size="16">Proposition</text>
<rect x="611.833" y="353.25" fill="#55D3FF" width="199.665" height="231.248"/>
<rect x="611.833" y="83.5" fill="#FC5E83" width="198.167" height="266.667"/>
<text transform="matrix(1 0 0 1 629 105)" fill="#4A4A4A" font-family="'Georgia'" font-size="16">Customer</text>
<text transform="matrix(1 0 0 1 697.9219 105)" fill="#4A4A4A" font-family="'Georgia'" font-size="16"> </text>
<text transform="matrix(1 0 0 1 629 124)" fill="#4A4A4A" font-family="'Georgia'" font-size="16">Relationships</text>
<rect x="812.5" y="83.5" fill="#FFFF00" width="197.5" height="499.25"/>
<text transform="matrix(1 0 0 1 629 381)" fill="#4A4A4A" font-family="'Georgia'" font-size="16">Channels</text>
<text transform="matrix(1 0 0 1 823 105)" fill="#4A4A4A" font-family="'Georgia'" font-size="16">Customer</text>
<text transform="matrix(1 0 0 1 891.9219 105)" fill="#4A4A4A" font-family="'Georgia'" font-size="16"> </text>
<text transform="matrix(1 0 0 1 823 124)" fill="#4A4A4A" font-family="'Georgia'" font-size="16">Segments</text>
<g id="compromise1" transform="translate(150.000000, 81.000000)" sketch:type="MSShapeGroup">
	<path id="Shape" fill="#4A4A4A" d="M36.967,17.293c-2.642,0-5.099,0.811-7.143,2.195c-1.238-0.838-2.633-1.454-4.124-1.818
		l0.792-1.296c0.221-0.359,0.221-0.981,0-1.34l-1.323-2.225C24.949,12.449,24.429,12,24.01,12h-2.73
		c-0.419,0-0.938,0.449-1.16,0.808l-1.323,2.304c-0.221,0.359-0.221,0.941,0,1.301l0.787,1.276c-5.595,1.405-9.76,6.504-9.76,12.581
		c0,7.155,5.768,12.977,12.857,12.977c2.642,0,5.099-0.811,7.143-2.194c2.044,1.384,4.501,2.194,7.143,2.194
		c7.089,0,12.857-5.822,12.857-12.977C49.824,23.115,44.057,17.293,36.967,17.293L36.967,17.293z M29.824,36.25
		c-1.337-1.625-2.143-3.708-2.143-5.98c0-2.272,0.806-4.356,2.143-5.98c1.337,1.625,2.143,3.708,2.143,5.98
		C31.967,32.542,31.162,34.625,29.824,36.25L29.824,36.25z M22.682,39.642c-5.12,0-9.286-4.205-9.286-9.372
		c0-5.168,4.166-9.373,9.286-9.373c1.583,0,3.073,0.404,4.378,1.112c-1.841,2.246-2.95,5.125-2.95,8.261
		c0,3.135,1.109,6.015,2.95,8.26C25.754,39.238,24.264,39.642,22.682,39.642L22.682,39.642z M36.967,39.642
		c-1.583,0-3.073-0.404-4.379-1.112c1.842-2.246,2.95-5.125,2.95-8.26c0-3.136-1.108-6.015-2.95-8.261
		c1.306-0.708,2.796-1.112,4.379-1.112c5.12,0,9.286,4.205,9.286,9.373C46.253,35.438,42.087,39.642,36.967,39.642L36.967,39.642z"
		/>
</g>
<g id="person128" transform="translate(351.000000, 81.000000)" sketch:type="MSShapeGroup">
	<g id="Group">
		<path id="Shape_1_" fill="#4A4A4A" d="M30.359,27.706H10.006V29.9h1.74v19.947h14.39V29.9h4.224V27.706z"/>
		<path id="Shape_2_" fill="#4A4A4A" d="M40.885,37.667c0.004,0,0.011,0.002,0.016,0.002c2.654,0.078,4.169-0.719,4.404-2.837
			l1.076-9.754c0.201-1.817-1.237-3.204-2.675-3.734l-0.011-0.004c0,0-0.513-0.168-0.981-0.232c-0.488-0.065-0.97,0.023-0.97,0.023
			c-1.122,0.132-2.231,0.932-2.231,0.932c-2.064,1.481-5.265,1.801-9.521,0.95c-1.07-0.217-2.11,0.487-2.323,1.565
			c-0.213,1.078,0.483,2.125,1.554,2.34c1.783,0.358,3.442,0.536,4.973,0.536c1.391,0,2.641-0.155,3.815-0.45l-0.01,0.138
			l-0.687,6.216c-3.594,0.131-5.858,0.877-6.746,2.232c-1.2,1.841-3.15,9.264-3.72,11.541c-0.294,1.176,0.416,2.37,1.584,2.667
			c0.178,0.045,0.356,0.067,0.533,0.067c0.977,0,1.866-0.665,2.114-1.661c1.003-4.011,2.388-8.169,3.02-9.485
			C34.624,37.572,38.09,37.511,40.885,37.667L40.885,37.667z"/>
		<ellipse id="Oval" fill="#4A4A4A" cx="42.22" cy="16.447" rx="4.415" ry="4.447"/>
		<path id="Shape_3_" fill="#4A4A4A" d="M49.408,33.352l0.586-7.658c0.002-0.043-0.015-0.086-0.045-0.117
			c-0.029-0.031-0.07-0.049-0.114-0.049h-2.413c-0.085,0-0.155,0.068-0.158,0.154l-0.546,7.664
			c-0.071,2.363-0.763,5.269-4.702,5.269c-0.056,0-4.356-0.01-4.356-0.01l0,0c-0.042,0-0.083,0.017-0.112,0.047
			c-0.03,0.03-0.047,0.071-0.047,0.114v2.368c0,0.088,0.071,0.16,0.159,0.16h3.955v5.443h-1.242c-1.625,0-2.999,1.438-2.999,3.139
			c0,0.089,0.071,0.16,0.159,0.16h1.566c0.088,0,0.159-0.071,0.159-0.16c0-0.626,0.51-1.154,1.114-1.154h5.149
			c0.604,0,1.114,0.528,1.114,1.154c0,0.089,0.071,0.16,0.159,0.16h1.566c0.088,0,0.159-0.071,0.159-0.16
			c0-1.701-1.373-3.139-2.999-3.139H44.28v-5.735C48.164,40.896,49.065,37.02,49.408,33.352L49.408,33.352z"/>
		<path id="Shape_4_" fill="#4A4A4A" d="M26.553,25.367h-7.456l-2.524-9.316c-0.018-0.065-0.084-0.104-0.149-0.086l-1.346,0.37
			c-0.031,0.009-0.058,0.029-0.073,0.058c-0.017,0.028-0.021,0.062-0.012,0.093l2.828,10.441c0.015,0.053,0.063,0.09,0.117,0.09
			h8.615c0.068,0,0.122-0.055,0.122-0.123V25.49C26.675,25.422,26.62,25.367,26.553,25.367L26.553,25.367z"/>
	</g>
</g>
<g id="businessman116" transform="translate(351.000000, 351.000000)" sketch:type="MSShapeGroup">
	<g id="Group_1_">
		<path id="Shape_5_" fill="#4A4A4A" d="M43.999,26.775c1.669,0,3.022-1.376,3.022-3.073s-1.354-3.073-3.022-3.073
			c-1.672,0-3.025,1.376-3.025,3.073S42.327,26.775,43.999,26.775L43.999,26.775z"/>
		<path id="Shape_6_" fill="#4A4A4A" d="M46.01,27.522c-0.051-0.031-0.104-0.054-0.156-0.076c-0.338-0.229-0.717-0.396-1.103-0.494
			l-0.752,0.771l-0.731-0.779c-0.003,0-0.005,0.001-0.008,0.001c-0.387,0.094-0.768,0.261-1.105,0.489
			c-0.06,0.025-0.12,0.052-0.179,0.088c-2.349,1.463-3.696,2.621-4.113,9.393c-0.04,0.658,0.453,1.225,1.099,1.266
			c0.026,0.001,0.051,0.002,0.075,0.002c0.615,0,1.132-0.486,1.172-1.119c0.141-2.287,0.368-3.768,0.695-4.79v4.133
			c0,0.322,0.061,0.621,0.169,0.896c-0.009,0.063-0.016,0.126-0.016,0.189l0.003,11.425c0,0.779,0.62,1.411,1.387,1.411
			s1.388-0.632,1.388-1.411l-0.001-9.805c0.055,0.003,0.11,0.007,0.166,0.007c0.01,0,0.021-0.001,0.031-0.002v9.8
			c0,0.778,0.621,1.41,1.388,1.41s1.388-0.632,1.388-1.41l0.001-11.355c0.182-0.342,0.288-0.73,0.288-1.155V32.31
			c0.32,1.021,0.545,2.494,0.684,4.755c0.039,0.632,0.557,1.119,1.171,1.119c0.024,0,0.05,0,0.074-0.002
			c0.646-0.041,1.139-0.607,1.099-1.266C49.706,30.144,48.357,28.986,46.01,27.522L46.01,27.522z M44.005,33.807h-0.014
			l-0.729-1.014l0.729-4.955h0.014l0.729,4.955L44.005,33.807L44.005,33.807z"/>
		<path id="Shape_7_" fill="#4A4A4A" d="M11.964,29.379c0,1.205,0.961,2.182,2.148,2.182c1.185,0,2.146-0.977,2.146-2.182
			c0-1.205-0.963-2.182-2.146-2.182C12.924,27.197,11.964,28.175,11.964,29.379L11.964,29.379z"/>
		<path id="Shape_8_" fill="#4A4A4A" d="M15.539,32.092c-0.035-0.022-0.074-0.039-0.11-0.054c-0.24-0.163-0.509-0.282-0.784-0.351
			l-0.533,0.548l-0.52-0.554c-0.002,0-0.004,0.001-0.006,0.001c-0.273,0.067-0.544,0.186-0.784,0.347
			c-0.043,0.018-0.086,0.037-0.127,0.063c-1.485,0.925-2.407,1.681-2.799,5.234h1.676c0.093-0.795,0.213-1.396,0.361-1.86v1.86
			h4.396v-1.835c0.146,0.461,0.262,1.054,0.354,1.835h1.675C17.946,33.773,17.024,33.018,15.539,32.092L15.539,32.092z
			 M14.116,36.554h-0.01l-0.518-0.72l0.518-3.517h0.01l0.518,3.517L14.116,36.554L14.116,36.554z"/>
		<path id="Shape_9_" fill="#4A4A4A" d="M20.426,29.379c0,1.205,0.961,2.182,2.147,2.182c1.186,0,2.146-0.977,2.146-2.182
			c0-1.205-0.961-2.182-2.146-2.182C21.387,27.197,20.426,28.175,20.426,29.379L20.426,29.379z"/>
		<path id="Shape_10_" fill="#4A4A4A" d="M24.001,32.092c-0.035-0.022-0.074-0.039-0.111-0.054
			c-0.239-0.163-0.508-0.282-0.782-0.351l-0.534,0.548l-0.52-0.554c-0.002,0-0.003,0.001-0.005,0.001
			c-0.275,0.067-0.546,0.186-0.785,0.347c-0.043,0.018-0.086,0.037-0.127,0.063c-1.485,0.925-2.407,1.681-2.8,5.234h1.677
			c0.093-0.795,0.213-1.396,0.361-1.86v1.86h4.396v-1.835c0.146,0.461,0.262,1.054,0.354,1.835h1.675
			C26.407,33.773,25.486,33.018,24.001,32.092L24.001,32.092z M22.577,36.554h-0.01l-0.518-0.72l0.518-3.517h0.01l0.519,3.517
			L22.577,36.554L22.577,36.554z"/>
		<path id="Shape_11_" fill="#4A4A4A" d="M18.31,26.591c3.989,0,7.232-3.296,7.232-7.349c0-4.053-3.243-7.349-7.232-7.349
			c-3.987,0-7.231,3.296-7.231,7.349C11.078,23.294,14.322,26.591,18.31,26.591L18.31,26.591z M18.31,13.844
			c2.93,0,5.313,2.421,5.313,5.398c0,2.977-2.384,5.397-5.313,5.397c-2.929,0-5.312-2.421-5.312-5.398S15.381,13.844,18.31,13.844
			L18.31,13.844z"/>
		<path id="Shape_12_" fill="#4A4A4A" d="M22.039,18.461h-2.961v-3.154h-1.536v4.715h4.497V18.461z"/>
		<path id="Shape_13_" fill="#4A4A4A" d="M24.858,47.486l-0.792-0.297c0.063-0.587,0.042-1.186-0.066-1.781l0.765-0.357
			c0.479-0.224,0.688-0.801,0.468-1.287l-0.447-0.985c-0.22-0.485-0.787-0.699-1.266-0.475l-0.766,0.359
			c-0.374-0.471-0.809-0.876-1.288-1.209l0.293-0.804c0.182-0.501-0.071-1.061-0.564-1.246l-1.002-0.376
			c-0.479-0.178-1.05,0.089-1.226,0.574l-0.293,0.805c-0.576-0.063-1.166-0.042-1.752,0.068l-0.353-0.777
			c-0.22-0.485-0.788-0.699-1.266-0.475l-0.97,0.454c-0.479,0.224-0.688,0.802-0.468,1.287l0.353,0.777
			c-0.463,0.381-0.861,0.822-1.189,1.31l-0.791-0.297c-0.478-0.181-1.049,0.086-1.227,0.573l-0.369,1.018
			c-0.089,0.243-0.078,0.506,0.028,0.741c0.106,0.234,0.298,0.414,0.535,0.503l0.793,0.298c-0.063,0.586-0.042,1.186,0.066,1.78
			l-0.767,0.358c-0.477,0.224-0.687,0.801-0.467,1.286l0.447,0.986c0.221,0.484,0.788,0.698,1.266,0.474l0.766-0.358
			c0.375,0.472,0.809,0.876,1.289,1.209l-0.293,0.805c-0.089,0.243-0.078,0.506,0.028,0.741s0.297,0.415,0.536,0.505l1.002,0.376
			c0.238,0.089,0.498,0.078,0.729-0.029c0.231-0.108,0.407-0.303,0.495-0.545l0.293-0.805c0.577,0.063,1.167,0.042,1.752-0.067
			l0.353,0.777c0.22,0.485,0.788,0.698,1.266,0.475l0.97-0.454c0.479-0.224,0.688-0.801,0.467-1.286l-0.353-0.777
			c0.464-0.382,0.862-0.822,1.19-1.31l0.791,0.298c0.24,0.09,0.499,0.079,0.73-0.029s0.407-0.302,0.495-0.544l0.37-1.019
			C25.605,48.23,25.353,47.672,24.858,47.486L24.858,47.486z M19.611,50.02c-0.5,0.233-1.031,0.352-1.577,0.352
			c-1.469,0-2.814-0.876-3.429-2.23c-0.87-1.92-0.04-4.201,1.849-5.085c0.5-0.234,1.03-0.353,1.576-0.353
			c1.469,0,2.814,0.875,3.429,2.23C22.329,46.853,21.5,49.135,19.611,50.02L19.611,50.02z"/>
		<path id="Shape_14_" fill="#4A4A4A" d="M32.958,32.375V15.93h-4.904v1.081h3.841v15.364h-3.841v1.33h3.841v16.754h-3.841v1.08
			h4.904V33.705h4.458l-0.076-1.33H32.958z"/>
	</g>
</g>
<g id="present3" transform="translate(551.000000, 81.000000)" sketch:type="MSShapeGroup">
	<path id="Shape_15_" fill="#4A4A4A" d="M32.49,18.36l-0.484-1.532c-0.191-0.61-0.456-1.206-0.786-1.768
		c-1.09-1.852-2.359-2.656-2.85-2.704c-0.183,0.39-0.154,1.884,0.976,3.806c1.076,1.832,2.33,2.636,2.834,2.702L32.49,18.36
		L32.49,18.36z M37.406,16.162c1.128-1.922,1.156-3.416,0.976-3.806c-0.49,0.046-1.764,0.848-2.854,2.704
		c-0.332,0.564-0.595,1.16-0.786,1.768l-0.49,1.552l0.326,0.504C35.042,18.822,36.314,18.02,37.406,16.162L37.406,16.162z
		 M32.706,19.854h4.04v5.636h9.816v-5.574h-9.219c0.744-0.546,1.5-1.396,2.122-2.45c1.34-2.284,1.536-4.656,0.435-5.302
		C39.71,12.054,39.496,12,39.264,12c-1.122,0-2.67,1.234-3.785,3.124c-0.372,0.638-0.648,1.278-0.841,1.89
		c-0.191-0.612-0.464-1.252-0.84-1.89C32.688,13.234,31.134,12,30.01,12c-0.226,0-0.441,0.054-0.634,0.164
		c-1.096,0.646-0.9,3.018,0.438,5.302c0.621,1.054,1.382,1.904,2.123,2.45h-9.22v5.574h9.988V19.854L32.706,19.854z M35.892,17.41
		c0.175-0.556,0.416-1.1,0.719-1.62c0.996-1.698,2.164-2.432,2.618-2.474c0.159,0.354,0.136,1.724-0.895,3.482
		c-1.004,1.704-2.168,2.436-2.59,2.492l-0.3-0.46L35.892,17.41L35.892,17.41z M30.948,16.798c-1.032-1.758-1.061-3.128-0.893-3.482
		c0.448,0.042,1.614,0.778,2.612,2.474c0.304,0.514,0.542,1.058,0.722,1.62l0.44,1.402l-0.284,0.46
		C33.082,19.214,31.936,18.476,30.948,16.798L30.948,16.798z M37.08,27.272v6.292c0.728,0.368,0.93,1.032,0.93,1.032
		s0.145-0.068,0.145,2.958c0,3.028-0.648,3.136-1.074,3.232v1.648c0,0,4.924-1.592,7.855-5.3c1.064-1.346,1.645-1.01,1.645-1.01
		l-0.021-8.852H37.08L37.08,27.272z M32.706,27.272h-9.99v5.144h9.988v-5.144H32.706L32.706,27.272z M10,32.528h5.71v19.326H10
		V32.528L10,32.528z M46.052,38.758c-0.226-0.088-0.46-0.122-0.698-0.082c-1.794,0.33-4.51,7.002-11.577,5.076
		c0,0-2.068-0.668-2.851-1.148c-0.691-0.382-2.16-1.256-3.359-2.168h3.359h3.778c0,0,0.292,0.018,0.63-0.058
		c0.462-0.106,1.016-0.388,1.016-1.152v-3.294c0,0-0.22-1.096-1.016-1.498c-0.182-0.092-0.388-0.15-0.63-0.15h-3.778H20.02h-1.897
		v14.052c0,0,11.204,3.516,15.156,3.516c0,0,9.878,0.44,16.468-7.248C49.748,44.606,48.03,39.526,46.052,38.758L46.052,38.758z"/>
</g>
<g id="moving10" transform="translate(750.000000, 351.000000)" sketch:type="MSShapeGroup">
	<g id="Group_2_">
		<path id="Shape_16_" fill="#4A4A4A" d="M34.929,27.622V13.17c0-0.414-0.329-0.75-0.733-0.75H10.956
			c-0.405,0-0.733,0.336-0.733,0.75v14.452c0,0.414,0.328,0.75,0.733,0.75h23.239C34.6,28.373,34.929,28.037,34.929,27.622
			L34.929,27.622z M29.363,18.4l1.146-2.032c0.115-0.202,0.4-0.202,0.513,0l1.148,2.032c0.114,0.202-0.027,0.455-0.256,0.455h-0.481
			v3.789c0,0.167-0.134,0.303-0.296,0.303h-0.741c-0.164,0-0.297-0.136-0.297-0.303v-3.789h-0.48
			C29.393,18.855,29.25,18.602,29.363,18.4L29.363,18.4z M24.923,18.4l1.148-2.032c0.112-0.202,0.397-0.202,0.513,0l1.147,2.032
			c0.115,0.202-0.029,0.455-0.258,0.455h-0.481v3.789c0,0.167-0.131,0.303-0.296,0.303h-0.741c-0.162,0-0.295-0.136-0.295-0.303
			v-3.789h-0.482C24.95,18.855,24.809,18.602,24.923,18.4L24.923,18.4z M19.974,24.08c0.077,0.017,0.132,0.084,0.132,0.165v0.365
			c0,0.105-0.083,0.189-0.186,0.189h-5.466c-0.091,0-0.165-0.075-0.165-0.168v-0.386c0-0.081,0.055-0.15,0.131-0.165l1.932-0.4
			v-1.652c-1.559-0.388-2.719-1.815-2.719-3.528c0-0.922,0.346-1.755,0.898-2.396h5.33c0.553,0.642,0.9,1.475,0.9,2.396
			c0,1.712-1.162,3.14-2.719,3.528v1.652L19.974,24.08L19.974,24.08z M32.735,24.656c0,0.083-0.066,0.151-0.147,0.151h-8.17
			c-0.082,0-0.149-0.068-0.149-0.151v-0.454c0-0.083,0.066-0.15,0.149-0.15h8.17c0.081,0,0.147,0.066,0.147,0.15V24.656
			L32.735,24.656z"/>
		<path id="Shape_17_" fill="#4A4A4A" d="M49.27,29.593h-1.145v-6.532c0-0.767-0.223-1.517-0.644-2.152l-2.862-4.334
			c-0.699-1.059-1.868-1.693-3.118-1.693h-4.438c-0.519,0-0.941,0.429-0.941,0.961v12.999c0,0.414-0.328,0.75-0.733,0.75h-6.535
			c0.688,0.608,1.164,1.458,1.301,2.42h7.667c0.271-1.909,1.879-3.381,3.822-3.381c1.941,0,3.547,1.472,3.82,3.381h3.807
			c0.261,0,0.471-0.216,0.471-0.48v-1.458C49.74,29.809,49.529,29.593,49.27,29.593L49.27,29.593z M44.584,21.777h-5.859
			c-0.26,0-0.469-0.214-0.469-0.48v-3.325c0-0.266,0.209-0.48,0.469-0.48h3.569c0.153,0,0.298,0.076,0.385,0.203l2.289,3.325
			C45.188,21.339,44.967,21.777,44.584,21.777L44.584,21.777z"/>
		<path id="Shape_18_" fill="#4A4A4A" d="M41.642,29.593c-1.616,0-2.926,1.339-2.926,2.993c0,1.651,1.31,2.99,2.926,2.99
			s2.926-1.339,2.926-2.99C44.566,30.932,43.256,29.593,41.642,29.593L41.642,29.593z M41.642,34.08
			c-0.808,0-1.463-0.668-1.463-1.494c0-0.827,0.655-1.497,1.463-1.497s1.464,0.669,1.464,1.497
			C43.104,33.411,42.447,34.08,41.642,34.08L41.642,34.08z"/>
		<path id="Shape_19_" fill="#4A4A4A" d="M17.255,29.593c-0.26,0-0.47,0.216-0.47,0.48v1.459c0,0.266,0.211,0.48,0.47,0.48h5.255
			c0.138-0.962,0.612-1.813,1.303-2.421h-6.558V29.593z"/>
		<path id="Shape_20_" fill="#4A4A4A" d="M26.331,29.593c-1.615,0-2.925,1.339-2.925,2.993c0,1.651,1.31,2.99,2.925,2.99
			c1.616,0,2.927-1.339,2.927-2.99C29.258,30.932,27.947,29.593,26.331,29.593L26.331,29.593z M26.331,34.08
			c-0.808,0-1.462-0.668-1.462-1.494c0-0.827,0.654-1.497,1.462-1.497s1.463,0.669,1.463,1.497
			C27.794,33.411,27.139,34.08,26.331,34.08L26.331,34.08z"/>
	</g>
</g>
<g id="partnership" transform="translate(750.000000, 81.000000)" sketch:type="MSShapeGroup">
	<g id="Group_3_">
		<path id="Shape_21_" fill="#4A4A4A" d="M43.689,22.775c2.979,0,5.378-2.411,5.378-5.385c0-2.976-2.4-5.391-5.378-5.391
			c-2.962,0-5.362,2.413-5.362,5.391C38.327,20.363,40.728,22.775,43.689,22.775L43.689,22.775z"/>
		<path id="Shape_22_" fill="#4A4A4A" d="M48.002,23.652h-8.613c-1.277,0-2.354,0.99-2.686,2.321l-5.112,10.498
			c-0.072-0.005-0.135-0.042-0.209-0.042h-1.971c-0.073,0-0.137,0.039-0.206,0.042l-5.112-10.496
			c-0.329-1.331-1.403-2.323-2.684-2.323h-8.616c-1.54,0-2.793,1.417-2.793,3.155v16.696h14.203v-9.479l3.103,5.751
			c0.3,1,1.12,1.725,2.107,1.725h1.971c0.989,0,1.809-0.726,2.11-1.725l3.101-5.751v9.479h14.203V26.807
			C50.797,25.069,49.542,23.652,48.002,23.652L48.002,23.652z"/>
		<path id="Shape_23_" fill="#4A4A4A" d="M17.105,22.775c2.962,0,5.361-2.411,5.361-5.385C22.469,14.413,20.069,12,17.105,12
			c-2.977,0-5.376,2.413-5.376,5.391C11.729,20.363,14.129,22.775,17.105,22.775L17.105,22.775z"/>
	</g>
</g>
<g id="group12" transform="translate(951.000000, 81.000000)" sketch:type="MSShapeGroup">
	<g id="Group_4_">
		<path id="Shape_24_" fill="#4A4A4A" d="M18.571,37.714V23.429c0,0,0.007-0.643,0.342-1.429h-6.056c0,0-2.857,0-2.857,2.857v10
			c0,2.857,2.857,2.857,2.857,2.857V52h8.571V40.571C21.429,40.571,18.571,40.571,18.571,37.714L18.571,37.714z"/>
		<path id="Shape_25_" fill="#4A4A4A" d="M18.571,20.571c0.743,0,1.431-0.206,2.039-0.537c0.084-0.051,0.179-0.097,0.269-0.147
			c1.187-0.761,1.979-2.086,1.979-3.602c0-2.367-1.919-4.286-4.286-4.286s-4.285,1.918-4.285,4.286S16.204,20.571,18.571,20.571
			L18.571,20.571z"/>
		<path id="Shape_26_" fill="#4A4A4A" d="M47.143,22h-6.054c0.333,0.786,0.34,1.429,0.34,1.429v14.286
			c0,2.857-2.857,2.857-2.857,2.857V52h8.571V37.714c0,0,2.857,0,2.857-2.857v-10C50,24.857,50,22,47.143,22L47.143,22z"/>
		<path id="Shape_27_" fill="#4A4A4A" d="M39.114,19.884c0.093,0.05,0.191,0.097,0.277,0.15c0.608,0.332,1.294,0.537,2.037,0.537
			c2.367,0,4.285-1.918,4.285-4.286S43.796,12,41.429,12s-4.286,1.918-4.286,4.286C37.143,17.799,37.932,19.122,39.114,19.884
			L39.114,19.884z"/>
		<circle id="Oval_1_" fill="#4A4A4A" cx="30" cy="16.286" r="4.286"/>
		<path id="Shape_28_" fill="#4A4A4A" d="M38.571,24.857c0,0,0-2.857-2.857-2.857H24.286c0,0-2.857,0-2.857,2.857v10
			c0,2.857,2.857,2.857,2.857,2.857V52h11.428V37.714c0,0,2.857,0,2.857-2.857V24.857L38.571,24.857z"/>
	</g>
</g>
<g id="files5" transform="translate(451.000000, 581.000000)" sketch:type="MSShapeGroup">
	<g id="Group_5_">
		<path id="Shape_29_" fill="#4A4A4A" d="M42.856,12.277H20.753L10.332,23.416v29.602h32.524V12.277L42.856,12.277z M19.834,16.962
			v4.937h-4.617L19.834,16.962L19.834,16.962z M40.339,50.472H12.848V24.444h9.5v-9.621h17.993v35.648H40.339z"/>
		<rect id="Rectangle-path" x="15.926" y="31.5" fill="#4A4A4A" width="21.307" height="2.868"/>
		<rect id="Rectangle-path_1_" x="15.926" y="37.5" fill="#4A4A4A" width="21.307" height="2.868"/>
		<rect id="Rectangle-path_2_" x="15.926" y="43.5" fill="#4A4A4A" width="21.307" height="2.868"/>
		<path id="Shape_30_" fill="#4A4A4A" d="M44.204,18.96v2.546h2.807v35.648H19.517v-2.773h-2.515V59.7h32.524V18.96H44.204z"/>
	</g>
</g>
<path id="Shape_31_" sketch:type="MSShapeGroup" fill="#4A4A4A" d="M999.824,593h-16.709c-0.652,0-1.178,0.528-1.178,1.18v7.56
	h-12.631c-1.26,0-2.297,0.796-2.297,1.765l-2.901,19.715h-0.755c-1.301,0-2.354,1.062-2.354,2.362v7.057
	c0,1.301,1.053,2.362,2.354,2.362h32.355c1.301,0,2.354-1.06,2.354-2.362v-7.057c0-1.301-1.053-2.362-2.354-2.362h-0.755
	l-2.899-19.715c0-0.083-0.02-0.163-0.038-0.246h7.808c0.65,0,1.176-0.531,1.176-1.18v-7.898C1001,593.528,1000.478,593,999.824,593
	L999.824,593z M972.588,604.997c0-0.374,0.314-0.678,0.702-0.678h13.319c0.391,0,0.707,0.304,0.707,0.678v2.429
	c0,0.374-0.316,0.685-0.707,0.685H973.29c-0.388,0-0.702-0.308-0.702-0.685V604.997L972.588,604.997z M984.146,616.119h-2.828
	c-0.637,0-1.149-0.5-1.149-1.111v-2.725c0-0.611,0.516-1.111,1.149-1.111h2.828c0.637,0,1.15,0.5,1.15,1.111v2.725
	C985.299,615.619,984.783,616.119,984.146,616.119L984.146,616.119z M985.299,618.494v2.727c0,0.611-0.516,1.111-1.149,1.111h-2.829
	c-0.636,0-1.149-0.5-1.149-1.111v-2.727c0-0.611,0.516-1.111,1.149-1.111h2.829C984.783,617.38,985.299,617.88,985.299,618.494
	L985.299,618.494z M977.742,616.152h-2.827c-0.636,0-1.154-0.5-1.154-1.111v-2.725c0-0.611,0.521-1.111,1.154-1.111h2.827
	c0.639,0,1.151,0.5,1.151,1.111v2.725C978.896,615.652,978.381,616.152,977.742,616.152L977.742,616.152z M978.896,618.527v2.727
	c0,0.611-0.516,1.111-1.152,1.111h-2.826c-0.637,0-1.154-0.5-1.154-1.111v-2.727c0-0.616,0.52-1.111,1.154-1.111h2.826
	C978.381,617.413,978.896,617.908,978.896,618.527L978.896,618.527z M995.243,625.058c0.65,0,1.18,0.528,1.18,1.183v1.689
	c0,0.653-0.529,1.18-1.18,1.18h-31.424c-0.65,0-1.178-0.523-1.178-1.18v-1.689c0-0.652,0.527-1.183,1.178-1.183H995.243
	L995.243,625.058z M998.893,600.229c0,0.654-0.527,1.18-1.178,1.18h-12.486c-0.656,0-1.179-0.523-1.179-1.18v-4.196
	c0-0.654,0.522-1.181,1.179-1.181h12.486c0.65,0,1.178,0.524,1.178,1.181V600.229L998.893,600.229z"/>
<g id="On" transform="translate(800.000000, 0.000000)">
	
		<rect id="Rectangle-5" x="10" y="12" sketch:type="MSShapeGroup" fill="#FFFFFF" stroke="#4A4A4A" stroke-width="3" width="200" height="30">
	</rect>
	<text transform="matrix(1 0 0 1 19 32)" fill="#4A4A4A" font-family="'Georgia'" font-size="14">On:</text>
</g>
<rect id="Rectangle-5_2_" x="10" y="12" sketch:type="MSShapeGroup" fill="#FFFFFF" stroke="#4A4A4A" stroke-width="3" width="591" height="66">
</rect>
<rect x="10" y="12" fill="#55D3FF" width="1000" height="66"/>
<text transform="matrix(1 0 0 1 30.5952 41)" fill="#4A4A4A" font-family="'Georgia'" font-size="18">Business Model Canvas IDEA:</text>
<g id="Author" transform="translate(596.000000, 0.000000)">
	
		<rect id="Rectangle-5_1_" x="10" y="12" sketch:type="MSShapeGroup" fill="#FFFFFF" stroke="#4A4A4A" stroke-width="3" width="200" height="66">
	</rect>
	<text transform="matrix(1 0 0 1 21 33.4004)" fill="#4A4A4A" font-family="'Georgia'" font-size="14">Author:</text>
</g>
<g id="Iteration" transform="translate(800.000000, 36.000000)">
	
		<rect id="Rectangle-6" x="10" y="12" sketch:type="MSShapeGroup" fill="#FFFFFF" stroke="#4A4A4A" stroke-width="3" width="200" height="30">
	</rect>
	<text transform="matrix(1 0 0 1 19 32)" fill="#4A4A4A" font-family="'Georgia'" font-size="14">Iteration:</text>
</g>
<text transform="matrix(1 0 0 1 284.5 42)"><tspan x="0" y="0" font-family="'Ubuntu-Bold'" font-size="21">Tinkers</tspan><tspan x="74.801" y="0" font-family="'Ubuntu'" font-size="21"> </tspan><tspan x="79.652" y="0" font-family="'Ubuntu-Light'" font-size="18">( A Bangladeshi Toy Brand )</tspan></text>
<text transform="matrix(1 0 0 1 675.5 29.5)"><tspan x="0" y="0" font-family="'Ubuntu'" font-size="12">Team Tinkers</tspan><tspan x="0" y="14.4" font-family="'Ubuntu'" font-size="12">University of Rajshahi</tspan><tspan x="0" y="28.8" font-family="'Ubuntu'" font-size="12">Bangladesh</tspan></text>
<text transform="matrix(1 0 0 1 851.5 32)" font-family="'Ubuntu'" font-size="18">24 October 2019</text>
<text transform="matrix(1 0 0 1 887.5 68)" font-family="'Ubuntu'" font-size="18">6th</text>
<rect x="236.5" y="173.25" fill="none" width="144.859" height="178"/>
<text transform="matrix(1 0 0 1 236.5 187.2178)"><tspan x="0" y="0" font-family="'Ubuntu-Light'" font-size="18">* Research</tspan><tspan x="0" y="21.6" font-family="'Ubuntu-Light'" font-size="18">* Prototype</tspan><tspan x="0" y="43.2" font-family="'Ubuntu-Light'" font-size="18">* User Test</tspan><tspan x="0" y="64.8" font-family="'Ubuntu-Light'" font-size="18">* Design </tspan><tspan x="0" y="86.4" font-family="'Ubuntu-Light'" font-size="18">* Develop</tspan><tspan x="0" y="108" font-family="'Ubuntu-Light'" font-size="18">* Marketing</tspan></text>
<rect x="30.595" y="156.999" fill="none" width="144.324" height="356"/>
<text transform="matrix(1 0 0 1 30.5952 170.9668)"><tspan x="0" y="0" font-family="'Ubuntu-Light'" font-size="18">* Printing Press</tspan><tspan x="0" y="21.6" font-family="'Ubuntu-Light'" font-size="18">* Vuforia, Google </tspan><tspan x="0" y="43.2" font-family="'Ubuntu-Light'" font-size="18">AR Core, Aug</tspan><tspan x="105.425" y="43.2" font-family="'Ubuntu-Light'" font-size="18">-</tspan><tspan x="0" y="64.8" font-family="'Ubuntu-Light'" font-size="18">mented Reality </tspan><tspan x="0" y="86.4" font-family="'Ubuntu-Light'" font-size="18">Functionality Pro</tspan><tspan x="135.555" y="86.4" font-family="'Ubuntu-Light'" font-size="18">-</tspan><tspan x="0" y="108" font-family="'Ubuntu-Light'" font-size="18">viding Softwares , </tspan><tspan x="0" y="129.6" font-family="'Ubuntu-Light'" font-size="18">Unity</tspan><tspan x="0" y="151.2" font-family="'Ubuntu-Light'" font-size="18">* Packaging </tspan><tspan x="0" y="172.8" font-family="'Ubuntu-Light'" font-size="18">Media</tspan><tspan x="0" y="194.4" font-family="'Ubuntu-Light'" font-size="18">* Binding Media</tspan></text>
<rect x="229" y="427" fill="none" width="162.974" height="150"/>
<text transform="matrix(1 0 0 1 229 440.9678)"><tspan x="0" y="0" font-family="'Ubuntu-Light'" font-size="18">* Fund</tspan><tspan x="0" y="21.6" font-family="'Ubuntu-Light'" font-size="18">* Toy Dealer Rela</tspan><tspan x="137.265" y="21.6" font-family="'Ubuntu-Light'" font-size="18">-</tspan><tspan x="0" y="43.2" font-family="'Ubuntu-Light'" font-size="18">tionship Maintain</tspan><tspan x="0" y="64.8" font-family="'Ubuntu-Light'" font-size="18">* Website, Face</tspan><tspan x="123.531" y="64.8" font-family="'Ubuntu-Light'" font-size="18">-</tspan><tspan x="0" y="86.4" font-family="'Ubuntu-Light'" font-size="18">book Group</tspan><tspan x="0" y="108" font-family="'Ubuntu-Light'" font-size="18">* Educators</tspan><tspan x="0" y="129.6" font-family="'Ubuntu-Light'" font-size="18">* Designers</tspan></text>
<rect x="30.595" y="656.5" fill="none" width="463.261" height="113"/>
<text transform="matrix(1 0 0 1 30.5952 670.4678)"><tspan x="0" y="0" font-family="'Ubuntu-Light'" font-size="18">* Printing Cost</tspan><tspan x="0" y="21.6" font-family="'Ubuntu-Light'" font-size="18">* Publishing Cost</tspan><tspan x="0" y="43.2" font-family="'Ubuntu-Light'" font-size="18">* Marketing Cost</tspan><tspan x="0" y="64.8" font-family="'Ubuntu-Light'" font-size="18">* Supply Chain Maintain Cost</tspan><tspan x="0" y="86.4" font-family="'Ubuntu-Light'" font-size="18">* Customer Relationship Cost</tspan></text>
<rect x="527.873" y="656.5" fill="none" width="467.714" height="123"/>
<text transform="matrix(1 0 0 1 527.873 670.4678)"><tspan x="0" y="0" font-family="'Ubuntu-Light'" font-size="18">* Fixed Pricing </tspan><tspan x="0" y="21.6" font-family="'Ubuntu-Light'" font-size="18">* Parents Child Relationship Buildup</tspan><tspan x="0" y="43.2" font-family="'Ubuntu-Light'" font-size="18">* Educative and Interactive Materials</tspan><tspan x="0" y="64.8" font-family="'Ubuntu-Light'" font-size="18">* Wow type Toys</tspan><tspan x="0" y="86.4" font-family="'Ubuntu-Light'" font-size="18">* Child Growth Materials</tspan></text>
<rect x="423.5" y="159.397" fill="none" width="182.5" height="424"/>
<text transform="matrix(1 0 0 1 423.5 173.3647)"><tspan x="0" y="0" font-family="'Ubuntu-Light'" font-size="18">* Creating Educative, </tspan><tspan x="0" y="21.6" font-family="'Ubuntu-Light'" font-size="18">Interactive, Enjoyable, </tspan><tspan x="0" y="43.2" font-family="'Ubuntu-Light'" font-size="18">Playable and Aug</tspan><tspan x="137.248" y="43.2" font-family="'Ubuntu-Light'" font-size="18">-</tspan><tspan x="0" y="64.8" font-family="'Ubuntu-Light'" font-size="18">mented Reality Toys</tspan><tspan x="0" y="108" font-family="'Ubuntu-Light'" font-size="18">* Building Childhood</tspan><tspan x="0" y="151.2" font-family="'Ubuntu-Light'" font-size="18">* Improving Parents - </tspan><tspan x="0" y="172.8" font-family="'Ubuntu-Light'" font-size="18">Child relationship</tspan><tspan x="0" y="216" font-family="'Ubuntu-Light'" font-size="18">* Growth in child </tspan><tspan x="0" y="237.6" font-family="'Ubuntu-Light'" font-size="18">mindset</tspan><tspan x="0" y="280.799" font-family="'Ubuntu-Light'" font-size="18">* Educative and Inter</tspan><tspan x="166.875" y="280.799" font-family="'Ubuntu-Light'" font-size="18">-</tspan><tspan x="0" y="302.401" font-family="'Ubuntu-Light'" font-size="18">active resource mate</tspan><tspan x="166.805" y="302.401" font-family="'Ubuntu-Light'" font-size="18">-</tspan><tspan x="0" y="324" font-family="'Ubuntu-Light'" font-size="18">rials</tspan></text>
<rect x="617" y="146.606" fill="none" width="189" height="206.644"/>
<text transform="matrix(1 0 0 1 617 160.5742)"><tspan x="0" y="0" font-family="'Ubuntu-Light'" font-size="18">* Facebook Group/</tspan><tspan x="149.974" y="0" font-family="'Ubuntu-Light'" font-size="18">-</tspan><tspan x="0" y="21.6" font-family="'Ubuntu-Light'" font-size="18">Facebook Community, </tspan><tspan x="0" y="43.2" font-family="'Ubuntu-Light'" font-size="18">Email,Mobile No</tspan><tspan x="0" y="64.8" font-family="'Ubuntu-Light'" font-size="18">* Offers,Cashback, </tspan><tspan x="0" y="86.4" font-family="'Ubuntu-Light'" font-size="18">Query</tspan><tspan x="0" y="108" font-family="'Ubuntu-Light'" font-size="18">* Lean Startup model </tspan><tspan x="0" y="129.6" font-family="'Ubuntu-Light'" font-size="18">relationship, feedback,</tspan><tspan x="0" y="151.2" font-family="'Ubuntu-Light'" font-size="18">user behaviour tracking</tspan></text>
<rect x="629" y="405.106" fill="none" width="189" height="164.5"/>
<text transform="matrix(1 0 0 1 629 419.0742)"><tspan x="0" y="0" font-family="'Ubuntu-Light'" font-size="18">* Toy Dealers</tspan><tspan x="0" y="21.6" font-family="'Ubuntu-Light'" font-size="18">* Educative materials </tspan><tspan x="0" y="43.2" font-family="'Ubuntu-Light'" font-size="18">suppliers</tspan><tspan x="0" y="64.8" font-family="'Ubuntu-Light'" font-size="18">* Online Promotion, </tspan><tspan x="0" y="86.4" font-family="'Ubuntu-Light'" font-size="18">Feedback Group</tspan><tspan x="0" y="108" font-family="'Ubuntu-Light'" font-size="18">*Ecommerce Markets</tspan></text>
<rect x="823" y="142.893" fill="none" width="178" height="430.607"/>
<text transform="matrix(1 0 0 1 823 156.8608)"><tspan x="0" y="0" font-family="'Ubuntu-Light'" font-size="18">* Married</tspan><tspan x="0" y="43.2" font-family="'Ubuntu-Light'" font-size="18">* Professional</tspan><tspan x="0" y="86.4" font-family="'Ubuntu-Light'" font-size="18">* Income greater than</tspan><tspan x="0" y="108" font-family="'Ubuntu-Light'" font-size="18">20,000 BDT in month</tspan><tspan x="0" y="151.2" font-family="'Ubuntu-Light'" font-size="18">* Parents concern </tspan><tspan x="0" y="172.8" font-family="'Ubuntu-Light'" font-size="18">about child growth</tspan><tspan x="0" y="216" font-family="'Ubuntu-Light'" font-size="18">* Working Parents</tspan><tspan x="0" y="237.6" font-family="'Ubuntu-Light'" font-size="18">* Upper Middle class </tspan><tspan x="0" y="259.2" font-family="'Ubuntu-Light'" font-size="18">and Middle class </tspan><tspan x="0" y="280.8" font-family="'Ubuntu-Light'" font-size="18">families</tspan><tspan x="0" y="302.4" font-family="'Ubuntu-Light'" font-size="18"> </tspan><tspan x="0" y="324" font-family="'Ubuntu-Light'" font-size="18">* Educational Institu</tspan><tspan x="161.423" y="324" font-family="'Ubuntu-Light'" font-size="18">-</tspan><tspan x="0" y="345.6" font-family="'Ubuntu-Light'" font-size="18">tons  seeking educa</tspan><tspan x="156.906" y="345.6" font-family="'Ubuntu-Light'" font-size="18">-</tspan><tspan x="0" y="367.2" font-family="'Ubuntu-Light'" font-size="18">tive resource and toys </tspan><tspan x="0" y="388.8" font-family="'Ubuntu-Light'" font-size="18">in the market</tspan></text>
</svg>
